<svg xmlns="http://www.w3.org/2000/svg" viewBox="0 0 462.26 475.89"><defs><style>.cls-1{fill:#046535;}.cls-2{fill:#9d1622;}.cls-3{fill:#cacc35;}</style></defs><title>wedeyy-icon</title><g id="Layer_2" data-name="Layer 2"><g id="Layer_1-2" data-name="Layer 1"><path class="cls-1" d="M167.14,374.16q13.49-57.56,31.32-113.92a23.15,23.15,0,0,0,.54-2.92c2.89-8.09,5.74-16.19,8.67-24.27,4.46-12.31,8.63-24.75,15.48-36,.82-1.35,1.53-3.1,3.56-3.1,7.11,0,14.29-.89,21.08,2.34a112,112,0,0,1,19.13,11.6c9.74,7.32,11.29,14,6.19,25.17-2.62,5.72-5.62,11.27-8.45,16.89l-2,4.58c-4.74,10.23-7.83,21.06-11.38,31.71C244,308,236.75,329.8,231,352.06a1.34,1.34,0,0,0-.18,1,16.13,16.13,0,0,0-2.15,7l-.16.39c-6.18,22-12.55,43.93-13.54,67,3.19-3.14,6.4-6,8.25-10l-.21-.24.25.2c6.15-6.82,10.15-15,14.68-22.88a548.76,548.76,0,0,0,29.94-60.47A304.4,304.4,0,0,0,280.86,305c9.7-20.15,15.06-41.8,21.77-63l.23-1,7.7-20.06.22-.15-.08-.25c1.79-4.64,5.4-5.69,10.05-5.82,5.13-.14,10.06,1,15.1,1.35,6.63,3.08,12.59,7.23,18.7,11.22,5.82,3.8,6.67,8.67,6.05,14.92-1.68,17.09-6.32,33.54-10.46,50.1-8.65,34.54-18.3,68.85-24.89,103.88-1.77,9.42-3.47,18.9-2.92,28.92,16.29-24.86,28.92-51.72,42.59-78a52.43,52.43,0,0,0,5.94-12.09h0a344.87,344.87,0,0,0,22-49h0c2.95-5.39,4.56-11.31,6.58-17.05,7.29-20.64,14-41.47,18.41-62.94v0c4.35-.57,8.59.77,12.89.74,6.69,0,11.66,3.19,16.06,7.8,4,4.2,8.07,8.4,12.3,12.4a9.82,9.82,0,0,1,3.14,7.52c.22,10.18-2.7,19.67-6.13,29.06-18.44,50.54-42.2,98.66-66.93,146.33-8.34,16.08-16.42,32.37-27.78,46.63-10,12.51-22.72,19.08-39.14,17C296.93,470.21,272.74,443.87,275,415c.23-2.84.65-5.8-.47-8.67-1.43.46-1.37,1.62-1.71,2.46-7,17-14.07,33.93-25.65,48.6-10.36,13.11-26.26,25.21-48.71,14.12l-.2-.09L176,455.92h0l-9-9,0,0c-7.34-9.84-8.42-20.88-6.82-32.69C162,400.8,165.12,387.58,167.14,374.16Z"/><path class="cls-1" d="M189.05,142.89c-.33,5-.23,11.66-1.35,18.25-1.08,6.33-3.74,8.35-9.56,6.08-35-13.62-63.78-33.9-77.63-71-7.51-20.1-13.1-40.38-12.58-62A50,50,0,0,1,89.67,22c1.35-4.85,4.47-6.62,9.41-5.81,6.06,1,11.28,3.86,16.31,7.16a242.74,242.74,0,0,1,50.44,43.59c15.85,18.27,22.58,40.33,23.21,64.33C189.12,134.58,189.05,137.91,189.05,142.89Z"/><path class="cls-2" d="M265,162.93c-.64.13-.8.48-.48,1v-.13a1.28,1.28,0,0,0-.22-1.81c-2.25-5-4.39-10-5.35-15.34-.92-5.17-1.45-10.41-2.15-15.61l-.08-5q.94-12,1.9-24c0-.7,0-1.39,0-2.09a7.75,7.75,0,0,0,1.06-2.19,142,142,0,0,1,7-28.74c.1-.32.21-.64.31-1A268.57,268.57,0,0,1,286.5,40a.66.66,0,0,0,.48-.7l1-1.19,0,0A26.45,26.45,0,0,0,294.32,31l18.61-17.85,1-1.08h0C316.45,11.47,318,9.33,320,8c5.82-3.75,11.35-8.11,18.81-8a.44.44,0,0,0,.63.23c6.44,5.16,6.66,12.7,7.09,19.89a179.05,179.05,0,0,1-1.84,37.23c-1.92,12.76-3.59,25.61-7.84,37.9-4,11.47-11.07,21.1-18.19,30.71l-.95.92c-10.46,10.47-21.58,20.16-34.55,27.45C277.36,157.61,272,162,265,162.93Z"/><path class="cls-3" d="M29.16,260.19c3.46-1.25,5.16-5,8.71-6.14s6-4,9-6.06c5.21-3.09,10.77-5.64,15.29-9.82a.7.7,0,0,0,.73-.23c7.21-3.31,14.2-7.12,22-9,16.09-3.8,32.4-3.94,48.58-1.56,9.9,1.46,20,3,29.05,8.18,2.73,1.56,3.78,3.23,3.1,6.42-.9,4.29-3.18,8-4.51,12.07A105.05,105.05,0,0,1,140.84,276c-1.93,1-3.89,2-5.14,3.89h.05a1,1,0,0,0-1,1.08v-.07l-23.81,15.17L98.85,302c-3.84-.23-6.61,2.86-10.34,3.21-8.73.81-17.42,2.62-26.13,2.73-17,.2-34.12,1.93-51.11-1.62-10.65-2.23-13.92-8.21-9.1-17.71,2.84-5.6,7.11-9.93,11.4-14.23C18.53,269.41,24,264.9,29.16,260.19Z"/></g></g></svg>